<mxfile host="Electron" modified="2024-11-18T12:49:20.184Z" agent="Mozilla/5.0 (Macintosh; Intel Mac OS X 10_15_7) AppleWebKit/537.36 (KHTML, like Gecko) draw.io/24.5.1 Chrome/124.0.6367.207 Electron/30.0.6 Safari/537.36" etag="wOsSLheyhnGEZmpUHUYv" version="24.5.1" type="device">
  <diagram name="Page-1" id="aufvmmUORT3L7HeTSmTU">
    <mxGraphModel dx="1060" dy="808" grid="1" gridSize="10" guides="1" tooltips="1" connect="1" arrows="1" fold="1" page="1" pageScale="1" pageWidth="827" pageHeight="1169" math="0" shadow="0">
      <root>
        <mxCell id="0" />
        <mxCell id="1" parent="0" />
        <mxCell id="nmlpf75wt_d5d8X0rRkt-1" value="" style="rounded=1;whiteSpace=wrap;html=1;shadow=0;glass=0;sketch=0;fontSize=16;arcSize=10;absoluteArcSize=1;fillColor=none;strokeColor=#5282ff;" vertex="1" parent="1">
          <mxGeometry x="80" y="280" width="600" height="220" as="geometry" />
        </mxCell>
        <mxCell id="nmlpf75wt_d5d8X0rRkt-2" value="Audit Trails" style="shape=image;verticalLabelPosition=bottom;verticalAlign=top;imageAspect=0;image=data:image/svg+xml,PHN2ZyB4bWxucz0iaHR0cDovL3d3dy53My5vcmcvMjAwMC9zdmciIHdpZHRoPSIzMiIgaGVpZ2h0PSIzMiIgdmlld0JveD0iMCAwIDMyIDMyIiBmaWxsPSJub25lIj4mI3hhOzxwYXRoIGQ9Ik0wIDE2QzAgNy4xNjM0NCA3LjE2MzQ0IDAgMTYgMEMyNC44MzY2IDAgMzIgNy4xNjM0NCAzMiAxNkMzMiAyNC44MzY2IDI0LjgzNjYgMzIgMTYgMzJDNy4xNjM0NCAzMiAwIDI0LjgzNjYgMCAxNloiIGZpbGw9IiM1MjgyRkYiLz4mI3hhOzxwYXRoIGZpbGwtcnVsZT0iZXZlbm9kZCIgY2xpcC1ydWxlPSJldmVub2RkIiBkPSJNNy45OTkwMiAyMi40OTRDNy45OTkwMiAyMS42NjggOC42NzIwMiAyMS4wMDEgOS41MDAwMiAyMS4wMDFDMTAuMzI4IDIxLjAwMSAxMS4wMDEgMjEuNjY4IDExLjAwMSAyMi40OTRDMTEuMDAxIDIzLjMyMSAxMC4zMjggMjQuMDAxIDkuNTAwMDIgMjQuMDAxQzguNjcyMDIgMjQuMDAxIDcuOTk5MDIgMjMuMzIxIDcuOTk5MDIgMjIuNDk0Wk0xMS45OTcgMjIuNDk0QzExLjk5NyAyMS42NjggMTIuNjcxIDIxLjAwMSAxMy40OTkgMjEuMDAxQzE0LjMyNyAyMS4wMDEgMTUgMjEuNjY4IDE1IDIyLjQ5NEMxNSAyMy4zMjEgMTQuMzI3IDI0LjAwMSAxMy40OTkgMjQuMDAxQzEyLjY3MSAyNC4wMDEgMTEuOTk3IDIzLjMyMSAxMS45OTcgMjIuNDk0Wk0xNS45OTcgMjIuNDk0QzE1Ljk5NyAyMS42NjggMTYuNjcxIDIxLjAwMSAxNy40OTkgMjEuMDAxQzE4LjMyNyAyMS4wMDEgMTkgMjEuNjY4IDE5IDIyLjQ5NEMxOSAyMy4zMjEgMTguMzI3IDI0LjAwMSAxNy40OTkgMjQuMDAxQzE2LjY3MSAyNC4wMDEgMTUuOTk3IDIzLjMyMSAxNS45OTcgMjIuNDk0Wk0yMi4yOTIgMjEuNzA4TDE5LjU2NyAxOC45NzRDMTkuNTM1IDE4Ljk0NyAxOS41MDUgMTguOTA3IDE5LjQ4IDE4Ljg4QzE4LjQ2NDIgMTkuNjEwMyAxNy4yNDQyIDIwLjAwMjIgMTUuOTkzIDIwQzEyLjY4IDIwIDkuOTg5MDIgMTcuMzA3IDkuOTg5MDIgMTMuOTg2QzkuOTkxNDEgMTIuMzk0NyAxMC42MjQ5IDEwLjg2OTQgMTEuNzUwNCA5Ljc0NDU0QzEyLjg3NiA4LjYxOTcyIDE0LjQwMTggNy45ODcyOCAxNS45OTMgNy45ODU5NkMxNy4wOTU4IDcuOTg2OTIgMTguMTc3MSA4LjI5MTQxIDE5LjExODQgOC44NjYwNUMyMC4wNTk2IDkuNDQwNyAyMC44MjQ2IDEwLjI2MzMgMjEuMzI5NCAxMS4yNDM4QzIxLjgzNDIgMTIuMjI0MyAyMi4wNTk0IDEzLjMyNDggMjEuOTgwMyAxNC40MjQ4QzIxLjkwMTIgMTUuNTI0OCAyMS41MjA5IDE2LjU4MTggMjAuODgxIDE3LjQ4TDIwLjk4MSAxNy41NkwyMy43MDcgMjAuMjk0QzIzLjg5NDUgMjAuNDgxNSAyMy45OTk4IDIwLjczNTggMjMuOTk5OCAyMS4wMDFDMjMuOTk5OCAyMS4yNjYxIDIzLjg5NDUgMjEuNTIwNCAyMy43MDcgMjEuNzA4QzIzLjUxODQgMjEuODkzOCAyMy4yNjQzIDIxLjk5OCAyMi45OTk1IDIxLjk5OEMyMi43MzQ4IDIxLjk5OCAyMi40ODA2IDIxLjg5MzggMjIuMjkyIDIxLjcwOFpNMjAuNDk2IDEzLjk4NkMyMC40OTQ0IDEyLjc5MTggMjAuMDE5NiAxMS42NDcgMTkuMTc1NiAxMC44MDIyQzE4LjMzMTYgOS45NTc0MyAxNy4xODcyIDkuNDgxNjEgMTUuOTkzIDkuNDc4OTZDMTQuNzk4NyA5LjQ4MTM0IDEzLjY1NCA5Ljk1NzA1IDEyLjgwOTggMTAuODAxOEMxMS45NjU1IDExLjY0NjYgMTEuNDkwNiAxMi43OTE2IDExLjQ4OSAxMy45ODZDMTEuNDgwMSAxNC41ODMgMTEuNTkgMTUuMTc1OSAxMS44MTI0IDE1LjczMDFDMTIuMDM0NyAxNi4yODQzIDEyLjM2NSAxNi43ODg3IDEyLjc4NDEgMTcuMjE0MUMxMy4yMDMxIDE3LjYzOTQgMTMuNzAyNiAxNy45NzcyIDE0LjI1MzQgMTguMjA3OEMxNC44MDQyIDE4LjQzODMgMTUuMzk1NCAxOC41NTcxIDE1Ljk5MjUgMTguNTU3MUMxNi41ODk2IDE4LjU1NzEgMTcuMTgwOCAxOC40MzgzIDE3LjczMTYgMTguMjA3OEMxOC4yODI0IDE3Ljk3NzIgMTguNzgxOSAxNy42Mzk0IDE5LjIwMSAxNy4yMTQxQzE5LjYyIDE2Ljc4ODcgMTkuOTUwMyAxNi4yODQzIDIwLjE3MjcgMTUuNzMwMUMyMC4zOTUgMTUuMTc1OSAyMC41MDQ5IDE0LjU4MyAyMC40OTYgMTMuOTg2WiIgZmlsbD0id2hpdGUiLz4mI3hhOzwvc3ZnPg==;fontFamily=Verdana;" vertex="1" parent="1">
          <mxGeometry x="208" y="300" width="32" height="32" as="geometry" />
        </mxCell>
        <mxCell id="nmlpf75wt_d5d8X0rRkt-3" value="Cloud Logging" style="shape=image;verticalLabelPosition=bottom;verticalAlign=top;imageAspect=0;image=data:image/svg+xml,PHN2ZyB4bWxucz0iaHR0cDovL3d3dy53My5vcmcvMjAwMC9zdmciIHdpZHRoPSIzMiIgaGVpZ2h0PSIzMiIgdmlld0JveD0iMCAwIDMyIDMyIiBmaWxsPSJub25lIj4mI3hhOzxwYXRoIGQ9Ik0wIDE2QzAgNy4xNjM0NCA3LjE2MzQ0IDAgMTYgMEMyNC44MzY2IDAgMzIgNy4xNjM0NCAzMiAxNkMzMiAyNC44MzY2IDI0LjgzNjYgMzIgMTYgMzJDNy4xNjM0NCAzMiAwIDI0LjgzNjYgMCAxNloiIGZpbGw9IiM1MjgyRkYiLz4mI3hhOzxwYXRoIGZpbGwtcnVsZT0iZXZlbm9kZCIgY2xpcC1ydWxlPSJldmVub2RkIiBkPSJNOC45OTg5OCAyMi44NThWMjEuMTM4QzguOTk4OTggMjEuMDU4IDkuMDYyOTggMjEuMDA1IDkuMTM5OTggMjEuMDA1SDE4Ljg1OUMxOC45MzYgMjEuMDA1IDE5IDIxLjA1OCAxOSAyMS4xMzhWMjIuODU4QzE5IDIyLjkzOCAxOC45MzYgMjMuMDA1IDE4Ljg1OSAyMy4wMDVIOS4xMzk5OEM5LjEwMTg3IDIzLjAwNCA5LjA2NTcxIDIyLjk4OCA5LjAzOTMyIDIyLjk2MDVDOS4wMTI5MyAyMi45MzI5IDguOTk4NDQgMjIuODk2MSA4Ljk5ODk4IDIyLjg1OFpNOC45OTk5OCAxOC44NThWMTcuMTM4QzguOTk5OTggMTcuMDcxIDkuMDYzOTggMTcuMDA1IDkuMTQwOTggMTcuMDA1SDIyLjg2QzIyLjkzNyAxNy4wMDUgMjMuMDAxIDE3LjA3MSAyMy4wMDEgMTcuMTM4VjE4Ljg1OEMyMy4wMDEgMTguOTM4IDIyLjkzNyAxOS4wMDUgMjIuODYgMTkuMDA1SDkuMTQwOThDOS4xMDI4NyAxOS4wMDQgOS4wNjY3MSAxOC45ODggOS4wNDAzMiAxOC45NjA1QzkuMDEzOTMgMTguOTMyOSA4Ljk5OTQ0IDE4Ljg5NjEgOC45OTk5OCAxOC44NThaTTguOTk4OTggMTQuODU4VjEzLjEzOEM4Ljk5ODk4IDEzLjA3MSA5LjA2Mjk4IDEzLjAwNCA5LjEzODk4IDEzLjAwNEgyMC44NkMyMC45MzYgMTMuMDA0IDIxIDEzLjA3MSAyMSAxMy4xMzhWMTQuODU4QzIxIDE0LjkzOCAyMC45MzYgMTUuMDA0IDIwLjg2IDE1LjAwNEg5LjEzODk4QzkuMTAxMjIgMTUuMDAyNyA5LjA2NTQ2IDE0Ljk4NjcgOS4wMzkzMSAxNC45NTk1QzkuMDEzMTcgMTQuOTMyMiA4Ljk5ODY5IDE0Ljg5NTggOC45OTg5OCAxNC44NThaTTguOTk5OTggMTAuODU4VjkuMTM4MDNDOC45OTk5OCA5LjA3MTAzIDkuMDYzOTggOS4wMDQwMyA5LjE0MDk4IDkuMDA0MDNIMjIuODU3QzIyLjkzNSA5LjAwNDAzIDIyLjk5OSA5LjA3MTAzIDIyLjk5OSA5LjEzNzAzVjEwLjg1N0MyMi45OTkgMTAuOTM3IDIyLjkzNSAxMS4wMDQgMjIuODU3IDExLjAwNEg5LjE0MDk4QzkuMTAyODcgMTEuMDAzIDkuMDY2NzEgMTAuOTg3IDkuMDQwMzIgMTAuOTU5NUM5LjAxMzkzIDEwLjkzMTkgOC45OTk0NCAxMC44OTUxIDguOTk5OTggMTAuODU3VjEwLjg1OFoiIGZpbGw9IndoaXRlIi8+JiN4YTs8L3N2Zz4=;fontFamily=Verdana;" vertex="1" parent="1">
          <mxGeometry x="372" y="300" width="32" height="32" as="geometry" />
        </mxCell>
        <mxCell id="nmlpf75wt_d5d8X0rRkt-4" value="Cloud Funtion" style="shape=image;verticalLabelPosition=bottom;verticalAlign=top;imageAspect=0;aspect=fixed;image=data:image/svg+xml,PHN2ZyB4bWxucz0iaHR0cDovL3d3dy53My5vcmcvMjAwMC9zdmciIHdpZHRoPSIzMiIgaGVpZ2h0PSIzMiIgdmlld0JveD0iMCAwIDMyIDMyIiBmaWxsPSJub25lIj4mI3hhOzxwYXRoIGQ9Ik0wIDE2QzAgNy4xNjM0NCA3LjE2MzQ0IDAgMTYgMFYwQzI0LjgzNjYgMCAzMiA3LjE2MzQ0IDMyIDE2VjE2QzMyIDI0LjgzNjYgMjQuODM2NiAzMiAxNiAzMlYzMkM3LjE2MzQ0IDMyIDAgMjQuODM2NiAwIDE2VjE2WiIgZmlsbD0iIzUyODJGRiIvPiYjeGE7PHBhdGggZD0iTTE1LjQxMiAyMS4zN0MxNC45MDQgMjEuNzkgMTQuMjczIDIyIDEzLjUxOSAyMkMxMy4xMjUgMjIgMTIuODQ1IDIxLjk2OSAxMi42NzkgMjEuOTA4VjIwLjQ0OUMxMi43NDcgMjAuNDY2IDEyLjg3IDIwLjQ4NiAxMy4wNDYgMjAuNTA4QzEzLjIyMiAyMC41MyAxMy4zNzkgMjAuNTQyIDEzLjUxOSAyMC41NDJDMTMuODg4IDIwLjU0MiAxNC4xNTUgMjAuNDM4IDE0LjMyMiAyMC4yMzJDMTQuNDg4IDIwLjAyNiAxNC42MDEgMTkuNzE3IDE0LjY2NCAxOS4zMDVMMTUuMzk5IDE0Ljk4MUgxNC40MjZMMTQuNzAyIDEzLjYxNUgxNS42MzZMMTUuNzkzIDEyLjY2OEMxNS45NDIgMTEuNzMgMTYuMjcxIDExLjA1MSAxNi43NzggMTAuNjMxQzE3LjI4NyAxMC4yMSAxNy45MzEgMTAgMTguNzExIDEwQzE4Ljg5NiAxMCAxOS4wNTUgMTAuMDA5IDE5LjE5IDEwLjAyNkMxOS4zMjcgMTAuMDQ0IDE5LjQyOSAxMC4wNjEgMTkuNDk5IDEwLjA3OVYxMS41NjRDMTkuNDMgMTEuNTM4IDE5LjMwNyAxMS41MTUgMTkuMTMyIDExLjQ5OUMxOC45NTYgMTEuNDgxIDE4Ljc5OCAxMS40NzIgMTguNjU4IDExLjQ3MkMxOC4yOSAxMS40NzIgMTguMDI1IDExLjU3MSAxNy44NjIgMTEuNzY4QzE3LjcgMTEuOTY1IDE3LjU4NSAxMi4yNjYgMTcuNTE0IDEyLjY2OEwxNy4zNTYgMTMuNjE1SDE4LjkzNEwxOC42NTggMTQuOTgxSDE3LjEyTDE2LjM5NyAxOS4zMzJDMTYuMjUgMjAuMjcgMTUuOTE5IDIwLjk0OSAxNS40MTIgMjEuMzdaTTEyLjI4NyAyNC45OEMxMi40NzUgMjQuOTY1IDEyLjY4MiAyNC45MzcgMTIuOTExIDI0Ljg5NkwxMi45OTIgMjQuODgyVjIzLjU5TDEyLjg3NCAyMy42MTNDMTIuNDgyIDIzLjY5MSAxMi4xNDcgMjMuNzMgMTEuODgyIDIzLjczQzExLjI0MyAyMy43MyAxMC44MDIgMjMuNTggMTAuNTcgMjMuMjg1QzEwLjMzNCAyMi45NzggMTAuMjE1IDIyLjU5IDEwLjIxNSAyMi4xMjZDMTAuMjE1IDIxLjgyMyAxMC4yMzcgMjEuNTM2IDEwLjI5IDIxLjIzMkwxMC41NjEgMTkuNjc4QzEwLjYwOCAxOS40MDMgMTAuNjMxIDE5LjA4NyAxMC42MzEgMTguNzQxQzEwLjYzMSAxOC40NTcgMTAuNjA0IDE4LjE3OSAxMC41NSAxNy45MThDMTAuNDkzIDE3LjY0OSAxMC4zODYgMTcuMzkyIDEwLjIyOCAxNy4xNTFDMTAuMDcxIDE2LjkxMyA5Ljg1NyAxNi42ODQgOS41OTIgMTYuNDc1QzkuMzc4IDE2LjMwNSA5LjEwOSAxNi4xNDkgOC43ODggMTYuMDA4QzkuMTA0IDE1Ljg3MSA5LjM3NyAxNS43MTMgOS42MDEgMTUuNTRDOS44NzIgMTUuMzI4IDEwLjA4NyAxNS4wOTMgMTAuMjQgMTQuODM4QzEwLjM4OSAxNC41ODkgMTAuNDkzIDE0LjMyMSAxMC41NSAxNC4wNDNDMTAuNjA0IDEzLjc3NCAxMC42MzEgMTMuNDk0IDEwLjYzMSAxMy4yMUMxMC42MzEgMTIuODc1IDEwLjYwOCAxMi41NjUgMTAuNTYxIDEyLjI4OUwxMC4yODMgMTAuNzEzQzEwLjIzNyAxMC40NDggMTAuMjE1IDEwLjE2NyAxMC4yMTUgOS44NzVDMTAuMjE1IDkuMzg3IDEwLjMzNyA4Ljk5IDEwLjU3OCA4LjY5N0MxMC44MTYgOC40MTIgMTEuMjYyIDguMjY3IDExLjkwMiA4LjI2N0MxMi4wNDQgOC4yNjcgMTIuMTk2IDguMjc2IDEyLjM1OCA4LjI5NkMxMi41MjEgOC4zMTYgMTIuOTkzIDguMzggMTIuOTkzIDguMzhWNy4xMUwxMi4yOSA3LjAyOUMxMi4wOTkgNy4wMSAxMS45MSA3IDExLjcyMyA3QzEwLjY3OSA3IDkuOTA0IDcuMjY1IDkuNDE4IDcuNzg1QzguOTMyIDguMzA1IDguNjg3IDguOTk2IDguNjg3IDkuODM3QzguNjg3IDEwLjE2OCA4LjcxNCAxMC40NzEgOC43NjcgMTAuNzRDOC44MiAxMS4wMTEgOC44NzYgMTEuMjggOC45MzYgMTEuNTQ2QzguOTk2IDExLjgxIDkuMDUyIDEyLjA4IDkuMTA1IDEyLjM1OEM5LjE1OCAxMi42MzEgOS4xODMgMTIuOTMyIDkuMTgzIDEzLjI1M0M5LjE4MyAxMy41MTkgOS4xNTggMTMuNzc2IDkuMTA2IDE0LjAxNUM5LjA1NSAxNC4yNDcgOC45NTggMTQuNDQ5IDguODA4IDE0LjYyOEM4LjY2IDE0LjgwOCA4LjQ0OCAxNC45NjIgOC4xNzcgMTUuMDg4QzcuOTA4IDE1LjIxNCA3LjU0MiAxNS4yOTggNy4wODkgMTUuMzM3TDcgMTUuMzQ0VjE2LjY1N0w3LjA5MSAxNi42NjRDNy41NjYgMTYuNzAzIDcuOTQ0IDE2Ljc5MyA4LjIxNSAxNi45MzJDOC40ODYgMTcuMDcxIDguNjk0IDE3LjIzOSA4LjgzNiAxNy40MjhDOC45NzggMTcuNjIgOS4wNzEgMTcuODQ0IDkuMTE1IDE4LjA5QzkuMTYxIDE4LjM1NCA5LjE4MyAxOC42MjkgOS4xODMgMTguOTA3QzkuMTgzIDE5LjIxNSA5LjE1OCAxOS41MDIgOS4xMDYgMTkuNzYxQzkuMDUyIDIwLjAyMyA4Ljk5NiAyMC4yODQgOC45MzYgMjAuNTQyQzguODc2IDIwLjgwMiA4LjgyIDIxLjA2MyA4Ljc2OCAyMS4zMjhDOC43MTMgMjEuNTk2IDguNjg3IDIxLjg4MSA4LjY4NyAyMi4yQzguNjg3IDIzLjAzMiA4LjkyOCAyMy43MTIgOS40MDcgMjQuMjIzQzkuODg3IDI0LjczNyAxMC42NjcgMjQuOTk4IDExLjcyMyAyNC45OThDMTEuOTA5IDI1IDEyLjA5NyAyNC45OTMgMTIuMjg3IDI0Ljk4Wk0yMC4yNzYgMjVDMjEuMzMzIDI1IDIyLjExMiAyNC43MzggMjIuNTkyIDI0LjIyNUMyMy4wNzEgMjMuNzEzIDIzLjMxMiAyMy4wMzQgMjMuMzEyIDIyLjIwMkMyMy4zMTIgMjEuODgzIDIzLjI4NiAyMS41OTggMjMuMjMxIDIxLjMzQzIzLjE3OSAyMS4wNjUgMjMuMTIzIDIwLjgwNCAyMy4wNjMgMjAuNTQ0QzIzLjAwMyAyMC4yODYgMjIuOTQ3IDIwLjAyNCAyMi44OTMgMTkuNzYzQzIyLjg0MSAxOS41MDMgMjIuODE2IDE5LjIxNiAyMi44MTYgMTguOTA5QzIyLjgxNiAxOC42MzEgMjIuODM4IDE4LjM1NSAyMi44ODQgMTguMDkyQzIyLjkyOCAxNy44NDYgMjMuMDIyIDE3LjYyMiAyMy4xNjMgMTcuNDNDMjMuMzA1IDE3LjI0MSAyMy41MTQgMTcuMDczIDIzLjc4NCAxNi45MzRDMjQuMDU1IDE2Ljc5NSAyNC40MzMgMTYuNzA1IDI0LjkwOCAxNi42NjZMMjUgMTYuNjU3VjE1LjM0NEwyNC45MSAxNS4zMzZDMjQuNDU3IDE1LjI5NyAyNC4wOTEgMTUuMjEzIDIzLjgyMiAxNS4wODdDMjMuNTUxIDE0Ljk2MSAyMy4zNCAxNC44MDcgMjMuMTkxIDE0LjYyN0MyMy4wNDIgMTQuNDQ3IDIyLjk0NCAxNC4yNDYgMjIuODkzIDE0LjAxNEMyMi44NDEgMTMuNzc2IDIyLjgxNiAxMy41MTggMjIuODE2IDEzLjI1MkMyMi44MTYgMTIuOTMyIDIyLjg0MSAxMi42MzEgMjIuODk0IDEyLjM1N0MyMi45NDcgMTIuMDggMjMuMDAzIDExLjgwOSAyMy4wNjMgMTEuNTQ1QzIzLjEyMyAxMS4yNzkgMjMuMTc5IDExLjAxMSAyMy4yMzIgMTAuNzM5QzIzLjI4NSAxMC40NjkgMjMuMzEyIDEwLjE2NyAyMy4zMTIgOS44MzZDMjMuMzEyIDguOTk1IDIzLjA2NyA4LjMwNCAyMi41ODEgNy43ODRDMjIuMDk1IDcuMjY1IDIxLjMyIDcgMjAuMjc2IDdDMjAuMDg5IDcgMTkuOSA3LjAxIDE5LjcxIDcuMDI5TDE5LjAwNyA3LjExVjguMzgyQzE5LjAwNyA4LjM4MiAxOS40NzkgOC4zMTggMTkuNjQyIDguMjk4QzE5LjgwNCA4LjI3NyAxOS45NTYgOC4yNjkgMjAuMDk4IDguMjY5QzIwLjczOSA4LjI2OSAyMS4xODQgOC40MTQgMjEuNDIyIDguNjk5QzIxLjY2MyA4Ljk5MiAyMS43ODUgOS4zODggMjEuNzg1IDkuODc3QzIxLjc4NSAxMC4xNjkgMjEuNzYzIDEwLjQ1IDIxLjcxNyAxMC43MTVMMjEuNDM5IDEyLjI5MUMyMS4zOTIgMTIuNTY3IDIxLjM2OSAxMi44NzcgMjEuMzY5IDEzLjIxMkMyMS4zNjkgMTMuNDk2IDIxLjM5NiAxMy43NzYgMjEuNDUgMTQuMDQ1QzIxLjUwNyAxNC4zMjMgMjEuNjEgMTQuNTkxIDIxLjc2IDE0Ljg0QzIxLjkxMiAxNS4wOTUgMjIuMTI3IDE1LjMzIDIyLjM5OSAxNS41NDJDMjIuNjI0IDE1LjcxNSAyMi44OTYgMTUuODczIDIzLjIxMiAxNi4wMUMyMi44OTIgMTYuMTUxIDIyLjYyMiAxNi4zMDcgMjIuNDA4IDE2LjQ3N0MyMi4xNDMgMTYuNjg2IDIxLjkyOSAxNi45MTUgMjEuNzcyIDE3LjE1M0MyMS42MTQgMTcuMzkzIDIxLjUwNiAxNy42NTEgMjEuNDUgMTcuOTJDMjEuMzk2IDE4LjE4MiAyMS4zNjkgMTguNDU5IDIxLjM2OSAxOC43NDNDMjEuMzY5IDE5LjA4OSAyMS4zOTIgMTkuNDA0IDIxLjQzOSAxOS42OEwyMS43MSAyMS4yMzRDMjEuNzYzIDIxLjUzOCAyMS43ODUgMjEuODI1IDIxLjc4NSAyMi4xMjhDMjEuNzg1IDIyLjU5MiAyMS42NjYgMjIuOTgxIDIxLjQzIDIzLjI4N0MyMS4xOTggMjMuNTgyIDIwLjc1NiAyMy43MzIgMjAuMTE4IDIzLjczMkMxOS44NTIgMjMuNzMyIDE5LjUxNyAyMy42OTMgMTkuMTI2IDIzLjYxNUwxOS4wMDggMjMuNTkyVjI0Ljg4NUwxOS4wODkgMjQuODk5QzE5LjMxOCAyNC45NCAxOS41MjYgMjQuOTY4IDE5LjcxMyAyNC45ODNDMTkuOTAyIDI0Ljk5MyAyMC4wOSAyNSAyMC4yNzYgMjVaIiBmaWxsPSJ3aGl0ZSIvPiYjeGE7PC9zdmc+;fontFamily=Verdana;" vertex="1" parent="1">
          <mxGeometry x="518" y="300" width="32" height="32" as="geometry" />
        </mxCell>
        <mxCell id="nmlpf75wt_d5d8X0rRkt-6" value="" style="rounded=1;whiteSpace=wrap;html=1;shadow=0;glass=0;sketch=0;fontSize=16;arcSize=10;absoluteArcSize=1;fillColor=#e3ebff;strokeColor=none;" vertex="1" parent="1">
          <mxGeometry x="120" y="400" width="520" height="80" as="geometry" />
        </mxCell>
        <mxCell id="nmlpf75wt_d5d8X0rRkt-7" value="&lt;font face=&quot;Verdana&quot;&gt;Yandex Services&lt;/font&gt;" style="rounded=1;whiteSpace=wrap;html=1;" vertex="1" parent="1">
          <mxGeometry x="330" y="410" width="120" height="60" as="geometry" />
        </mxCell>
        <mxCell id="nmlpf75wt_d5d8X0rRkt-8" value="" style="endArrow=block;html=1;strokeWidth=1;arcSize=8;endFill=1;endSize=3;startSize=3;strokeColor=#313538;rounded=0;exitX=0;exitY=0.5;exitDx=0;exitDy=0;entryX=0;entryY=0.5;entryDx=0;entryDy=0;" edge="1" parent="1" source="nmlpf75wt_d5d8X0rRkt-7" target="nmlpf75wt_d5d8X0rRkt-2">
          <mxGeometry width="50" height="50" relative="1" as="geometry">
            <mxPoint x="390" y="360" as="sourcePoint" />
            <mxPoint x="430" y="400" as="targetPoint" />
            <Array as="points">
              <mxPoint x="110" y="440" />
              <mxPoint x="110" y="316" />
            </Array>
          </mxGeometry>
        </mxCell>
        <mxCell id="nmlpf75wt_d5d8X0rRkt-11" value="" style="endArrow=block;html=1;strokeWidth=1;arcSize=8;endFill=1;endSize=3;startSize=3;strokeColor=#313538;rounded=0;exitX=1;exitY=0.5;exitDx=0;exitDy=0;entryX=0;entryY=0.5;entryDx=0;entryDy=0;" edge="1" parent="1" source="nmlpf75wt_d5d8X0rRkt-2" target="nmlpf75wt_d5d8X0rRkt-3">
          <mxGeometry width="50" height="50" relative="1" as="geometry">
            <mxPoint x="388" y="420" as="sourcePoint" />
            <mxPoint x="428" y="460" as="targetPoint" />
          </mxGeometry>
        </mxCell>
        <mxCell id="nmlpf75wt_d5d8X0rRkt-12" value="&lt;font face=&quot;Verdana&quot;&gt;Send Logs&lt;/font&gt;" style="edgeLabel;html=1;align=center;verticalAlign=middle;resizable=0;points=[];" vertex="1" connectable="0" parent="nmlpf75wt_d5d8X0rRkt-11">
          <mxGeometry x="-0.1364" y="2" relative="1" as="geometry">
            <mxPoint as="offset" />
          </mxGeometry>
        </mxCell>
        <mxCell id="nmlpf75wt_d5d8X0rRkt-14" value="" style="endArrow=block;html=1;strokeWidth=1;arcSize=8;endFill=1;endSize=3;startSize=3;strokeColor=#313538;rounded=0;exitX=1;exitY=0.5;exitDx=0;exitDy=0;entryX=0;entryY=0.5;entryDx=0;entryDy=0;" edge="1" parent="1" source="nmlpf75wt_d5d8X0rRkt-3" target="nmlpf75wt_d5d8X0rRkt-4">
          <mxGeometry width="50" height="50" relative="1" as="geometry">
            <mxPoint x="388" y="420" as="sourcePoint" />
            <mxPoint x="428" y="460" as="targetPoint" />
          </mxGeometry>
        </mxCell>
        <mxCell id="nmlpf75wt_d5d8X0rRkt-15" value="&lt;font face=&quot;Verdana&quot;&gt;Function Trigger&lt;/font&gt;" style="edgeLabel;html=1;align=center;verticalAlign=middle;resizable=0;points=[];" vertex="1" connectable="0" parent="nmlpf75wt_d5d8X0rRkt-14">
          <mxGeometry x="-0.2281" y="-2" relative="1" as="geometry">
            <mxPoint x="10" y="-2" as="offset" />
          </mxGeometry>
        </mxCell>
        <mxCell id="nmlpf75wt_d5d8X0rRkt-17" value="" style="shape=image;verticalLabelPosition=bottom;labelBackgroundColor=default;verticalAlign=top;aspect=fixed;imageAspect=0;image=https://upload.wikimedia.org/wikipedia/commons/thumb/8/82/Telegram_logo.svg/1200px-Telegram_logo.svg.png;" vertex="1" parent="1">
          <mxGeometry x="590" y="160" width="40" height="40" as="geometry" />
        </mxCell>
        <mxCell id="nmlpf75wt_d5d8X0rRkt-19" value="" style="shape=image;verticalLabelPosition=bottom;labelBackgroundColor=default;verticalAlign=top;aspect=fixed;imageAspect=0;image=https://upload.wikimedia.org/wikipedia/commons/thumb/d/d5/Slack_icon_2019.svg/2048px-Slack_icon_2019.svg.png;" vertex="1" parent="1">
          <mxGeometry x="430" y="160" width="40" height="40" as="geometry" />
        </mxCell>
        <mxCell id="nmlpf75wt_d5d8X0rRkt-22" value="" style="edgeStyle=orthogonalEdgeStyle;fontSize=12;html=1;endArrow=blockThin;endFill=1;rounded=0;strokeWidth=2;endSize=4;startSize=4;strokeColor=#EA4335;dashed=0;exitX=0.5;exitY=0;exitDx=0;exitDy=0;" edge="1" parent="1" source="nmlpf75wt_d5d8X0rRkt-4" target="nmlpf75wt_d5d8X0rRkt-19">
          <mxGeometry width="100" relative="1" as="geometry">
            <mxPoint x="320" y="420" as="sourcePoint" />
            <mxPoint x="420" y="420" as="targetPoint" />
            <Array as="points">
              <mxPoint x="534" y="260" />
              <mxPoint x="450" y="260" />
            </Array>
          </mxGeometry>
        </mxCell>
        <mxCell id="nmlpf75wt_d5d8X0rRkt-24" value="" style="edgeStyle=orthogonalEdgeStyle;fontSize=12;html=1;endArrow=blockThin;endFill=1;rounded=0;strokeWidth=2;endSize=4;startSize=4;strokeColor=#EA4335;dashed=0;exitX=0.5;exitY=0;exitDx=0;exitDy=0;entryX=0.5;entryY=1;entryDx=0;entryDy=0;" edge="1" parent="1" source="nmlpf75wt_d5d8X0rRkt-4" target="nmlpf75wt_d5d8X0rRkt-17">
          <mxGeometry width="100" relative="1" as="geometry">
            <mxPoint x="320" y="420" as="sourcePoint" />
            <mxPoint x="420" y="420" as="targetPoint" />
            <Array as="points">
              <mxPoint x="534" y="260" />
              <mxPoint x="610" y="260" />
            </Array>
          </mxGeometry>
        </mxCell>
        <mxCell id="nmlpf75wt_d5d8X0rRkt-26" value="&lt;font face=&quot;Verdana&quot;&gt;Send notifications&lt;/font&gt;" style="edgeLabel;html=1;align=center;verticalAlign=middle;resizable=0;points=[];" vertex="1" connectable="0" parent="nmlpf75wt_d5d8X0rRkt-24">
          <mxGeometry x="-0.5455" y="8" relative="1" as="geometry">
            <mxPoint y="8" as="offset" />
          </mxGeometry>
        </mxCell>
        <mxCell id="nmlpf75wt_d5d8X0rRkt-30" value="" style="shape=image;verticalLabelPosition=bottom;labelBackgroundColor=default;verticalAlign=top;aspect=fixed;imageAspect=0;image=https://upload.wikimedia.org/wikipedia/commons/thumb/4/40/Yandex_Cloud_logo.svg/1280px-Yandex_Cloud_logo.svg.png;" vertex="1" parent="1">
          <mxGeometry x="90" y="250" width="133.33" height="20" as="geometry" />
        </mxCell>
      </root>
    </mxGraphModel>
  </diagram>
</mxfile>
